<?xml version="1.0" encoding="utf-8"?>
<!-- Generator: Adobe Illustrator 16.0.4, SVG Export Plug-In . SVG Version: 6.00 Build 0)  -->
<!DOCTYPE svg PUBLIC "-//W3C//DTD SVG 1.1//EN" "http://www.w3.org/Graphics/SVG/1.1/DTD/svg11.dtd">
<svg version="1.1" id="Layer_1" xmlns="http://www.w3.org/2000/svg" xmlns:xlink="http://www.w3.org/1999/xlink" x="0px" y="0px"
	 width="12px" height="12px" viewBox="0 0 12 12" enable-background="new 0 0 12 12" xml:space="preserve">
<g>
	<polygon fill="#FFFFFF" points="12,1.714 10.285,1.714 10.285,0 8.572,0 8.572,1.714 6.857,1.714 6.857,3.429 8.572,3.429 
		8.572,5.143 10.285,5.143 10.285,3.429 12,3.429 	"/>
	<path fill="#FFFFFF" d="M6.857,6v0.857H5.143V5.143H6V3.429H1.714V1.714H6V0H0v1.714v1.715v1.714v1.714v1.715v1.714V12h1.714h1.715
		h1.714h1.714h1.715v-1.715V8.572V6.857V6H6.857z M3.429,10.285H1.714V8.572h1.715V10.285z M3.429,6.857H1.714V5.143h1.715V6.857z
		 M6.857,10.285H5.143V8.572h1.714V10.285L6.857,10.285z"/>
</g>
</svg>
