<?xml version="1.0" encoding="utf-8"?>
<!-- Generator: Adobe Illustrator 17.1.0, SVG Export Plug-In . SVG Version: 6.00 Build 0)  -->
<!DOCTYPE svg PUBLIC "-//W3C//DTD SVG 1.1//EN" "http://www.w3.org/Graphics/SVG/1.1/DTD/svg11.dtd">
<svg version="1.1" id="Layer_1" xmlns="http://www.w3.org/2000/svg" xmlns:xlink="http://www.w3.org/1999/xlink" x="0px" y="0px"
	 width="16.3px" height="16.3px" viewBox="0 0 16.3 16.3" enable-background="new 0 0 16.3 16.3" xml:space="preserve">
<path fill="#479FE2" d="M13.9,2.4c-3.2-3.2-8.4-3.2-11.5,0c-3.2,3.2-3.2,8.4,0,11.5c3.2,3.2,8.4,3.2,11.5,0S17.1,5.6,13.9,2.4z
	 M3.9,12.5c-2.4-2.4-2.4-6.2,0-8.6c2.4-2.4,6.2-2.4,8.6,0s2.4,6.2,0,8.6C10.1,14.8,6.2,14.8,3.9,12.5z"/>
<rect x="6.9" y="0.7" transform="matrix(0.7073 0.7069 -0.7069 0.7073 8.1948 -3.3035)" fill="#479FE2" width="2.4" height="15.2"/>
</svg>
